<?xml version="1.0" encoding="utf-8"?>
<!-- Generator: Adobe Illustrator 19.1.0, SVG Export Plug-In . SVG Version: 6.00 Build 0)  -->
<svg version="1.1" id="Layer_1" xmlns="http://www.w3.org/2000/svg" xmlns:xlink="http://www.w3.org/1999/xlink" x="0px" y="0px"
	 viewBox="0 0 100 70" style="enable-background:new 0 0 100 70;" xml:space="preserve">
<style type="text/css">
	.st0{fill:#97CDB5;}
	.st1{opacity:0.15;clip-path:url(#SVGID_2_);fill:#231F20;}
	.st2{fill:#ED1A59;}
	.st3{fill:#FFFFFF;}
</style>
<circle class="st0" cx="50" cy="35" r="35"/>
<g>
	<defs>
		<circle id="SVGID_1_" cx="50" cy="35" r="35"/>
	</defs>
	<clipPath id="SVGID_2_">
		<use xlink:href="#SVGID_1_"  style="overflow:visible;"/>
	</clipPath>
	<polygon class="st1" points="45.8,16.5 0,34.8 -2.2,76.2 56.4,53.2 50.9,52.2 49.4,34 47.9,30.4 51.2,28.6 51,26.4 51.3,22.5 
		55.7,20 50,17.1 49.1,15.9 51.1,21.1 50,17.1 	"/>
</g>
<path class="st2" d="M55.7,20v-1.6c0-1.1-0.9-2-2-2h-7.4c-1.1,0-2,0.9-2,2V20H55.7z"/>
<path class="st2" d="M54.7,21.8h-0.9h-7.6h-0.9v0.9c0,5.2-1,7.8-2,10.3c-0.9,2.4-1.9,4.9-1.9,9.3v7.3c0,2.3,1.8,4.1,4.1,4.1h8.9
	c2.3,0,4.1-1.8,4.1-4.1v-7.3c0-4.4-0.9-6.9-1.9-9.3c-1-2.5-2-5.1-2-10.3V21.8z"/>
<path class="st3" d="M55.8,42.2c0-3.9-0.8-6.1-1.7-8.3c-0.7-1.7-1.3-3.5-1.7-6h-4.7c-0.4,2.5-1.1,4.3-1.7,6
	c-0.9,2.3-1.7,4.4-1.7,8.3v6.1c0,0.7,0.6,1.3,1.3,1.3h8.9c0.7,0,1.3-0.6,1.3-1.3V42.2z"/>
</svg>
