<?xml version="1.0" encoding="utf-8"?>
<!-- Generator: Adobe Illustrator 19.1.0, SVG Export Plug-In . SVG Version: 6.00 Build 0)  -->
<svg version="1.1" id="Layer_1" xmlns="http://www.w3.org/2000/svg" xmlns:xlink="http://www.w3.org/1999/xlink" x="0px" y="0px"
	 viewBox="0 0 100 70" style="enable-background:new 0 0 100 70;" xml:space="preserve">
<style type="text/css">
	.st0{fill:#FFFFFF;}
	.st1{opacity:0.15;clip-path:url(#SVGID_2_);fill:#231F20;}
	.st2{fill:#1B6432;}
	.st3{fill:#ED1A59;}
</style>
<circle class="st0" cx="50" cy="35" r="29.4"/>
<g>
	<defs>
		<circle id="SVGID_1_" cx="50" cy="35" r="29.4"/>
	</defs>
	<clipPath id="SVGID_2_">
		<use xlink:href="#SVGID_1_"  style="overflow:visible;"/>
	</clipPath>
	<polygon class="st1" points="39.8,21.5 9.1,35 3.1,72 54.6,51.4 49.5,46.7 51,50.5 50.6,45.9 53.4,42.1 64.6,36.1 63.3,28.5 
		58.4,24.1 61.2,21.9 57.8,21.2 51.5,25.4 50,18 	"/>
</g>
<path class="st2" d="M44.5,23.9l-0.7,0.4c-3.3,1.7-3.9,4.4-3.9,5.8c2.7-2.7,5.4-3.2,5.5-3.2l0.9-0.1l-0.3,0.8
	c-0.5,1.4-0.7,2.6-0.7,3.6c0,1.4,0.4,2.5,0.7,3.2c0.8-3.8,3.6-6.3,3.7-6.4l0.3-0.3l0.3,0.3c0.1,0.1,2.9,2.6,3.7,6.4
	c0.4-0.7,0.7-1.8,0.7-3.2c0-1-0.2-2.2-0.7-3.6l-0.3-0.8l0.9,0.1c0.1,0,2.9,0.5,5.5,3.2c-0.1-1.5-0.6-4.1-3.9-5.8l-0.7-0.4l0.7-0.5
	c0.1-0.1,1.8-1.2,5-1.5c-1.7-1.1-5.1-2.5-8.7,0l-0.5,0.3c0,0-1.5-3.1-2.1-4.3c-0.6,1.2-2.1,4.3-2.1,4.3L47.5,22
	c-3.6-2.5-7-1.1-8.7,0c3.3,0.3,4.9,1.4,5,1.5L44.5,23.9z"/>
<path class="st3" d="M58.3,23.7c-0.2,0.1-0.3,0.1-0.4,0.2c2.9,2,3.4,4.7,3.5,6.2l0.1,3.1L59.3,31c-1.4-1.4-2.7-2.1-3.7-2.5
	c0.2,0.9,0.4,1.9,0.4,2.7c0,1.4-0.3,2.6-0.9,3.8l-1.5,3l-0.7-3.3c-0.5-2.6-2.1-4.5-2.9-5.3c-0.8,0.8-2.4,2.8-2.9,5.3L46.4,38l-1.5-3
	c-0.6-1.1-0.9-2.4-0.9-3.8c0-0.9,0.1-1.8,0.4-2.7c-0.9,0.4-2.3,1.1-3.7,2.5l-2.2,2.2l0.1-3.1c0.1-1.5,0.6-4.2,3.5-6.2
	c-0.1-0.1-0.3-0.1-0.4-0.2c-5.2,2.6-8.7,7.5-8.7,13.1C33,45.2,40.6,52,50,52c9.4,0,17-6.8,17-15.1C67,31.3,63.5,26.3,58.3,23.7z"/>
</svg>
